<?xml version="1.0" encoding="utf-8"?>
<!-- Generator: Adobe Illustrator 27.9.0, SVG Export Plug-In . SVG Version: 6.00 Build 0)  -->
<svg version="1.1" id="Calque_1" xmlns="http://www.w3.org/2000/svg" xmlns:xlink="http://www.w3.org/1999/xlink" x="0px" y="0px"
	 viewBox="0 0 1366 128" style="enable-background:new 0 0 1366 128;" xml:space="preserve">
<g>
	<path d="M72.11,35.9c-0.57-5.31-2.95-9.44-7.14-12.39c-4.19-2.96-9.63-4.43-16.31-4.43c-4.7,0-8.73,0.71-12.09,2.13
		c-3.36,1.42-5.93,3.34-7.71,5.77c-1.78,2.43-2.69,5.2-2.73,8.32c0,2.59,0.6,4.84,1.79,6.74c1.19,1.9,2.82,3.51,4.89,4.83
		c2.07,1.32,4.35,2.42,6.86,3.31c2.51,0.89,5.04,1.64,7.59,2.25l11.66,2.92c4.7,1.09,9.22,2.57,13.58,4.43
		c4.35,1.86,8.26,4.21,11.72,7.05c3.46,2.84,6.21,6.26,8.23,10.27c2.02,4.01,3.04,8.71,3.04,14.09c0,7.29-1.86,13.7-5.59,19.23
		c-3.73,5.53-9.1,9.84-16.13,12.94c-7.03,3.1-15.52,4.65-25.48,4.65c-9.68,0-18.07-1.5-25.18-4.5c-7.11-3-12.66-7.37-16.64-13.12
		C2.48,104.63,0.32,97.62,0,89.36h22.17c0.32,4.33,1.66,7.94,4.01,10.81c2.35,2.88,5.42,5.02,9.2,6.44
		c3.79,1.42,8.03,2.13,12.73,2.13c4.9,0,9.2-0.74,12.91-2.22c3.71-1.48,6.61-3.54,8.72-6.2c2.11-2.65,3.18-5.76,3.22-9.33
		c-0.04-3.24-0.99-5.92-2.86-8.05c-1.86-2.13-4.47-3.91-7.81-5.35c-3.34-1.44-7.24-2.72-11.69-3.86L36.45,70.1
		c-10.25-2.63-18.34-6.63-24.27-12c-5.93-5.37-8.9-12.5-8.9-21.41c0-7.33,1.99-13.75,5.98-19.26c3.99-5.51,9.43-9.79,16.31-12.85
		C32.46,1.53,40.26,0,48.96,0c8.83,0,16.57,1.53,23.24,4.59c6.66,3.06,11.9,7.29,15.7,12.7c3.81,5.41,5.77,11.61,5.89,18.62H72.11z"
		/>
	<path d="M106.99,126.11V1.7h80.92v18.89h-58.38v33.78h54.19v18.89h-54.19v33.96h58.86v18.89H106.99z"/>
	<path d="M308.86,43.68h-22.72c-0.65-3.73-1.84-7.04-3.58-9.93c-1.74-2.9-3.91-5.36-6.5-7.38c-2.59-2.02-5.54-3.55-8.84-4.59
		c-3.3-1.03-6.86-1.55-10.66-1.55c-6.76,0-12.76,1.69-17.98,5.07c-5.22,3.38-9.32,8.32-12.27,14.82c-2.96,6.5-4.43,14.43-4.43,23.78
		c0,9.52,1.49,17.53,4.47,24.03c2.98,6.5,7.07,11.4,12.27,14.7c5.2,3.3,11.17,4.95,17.89,4.95c3.73,0,7.22-0.5,10.48-1.49
		c3.26-0.99,6.2-2.46,8.81-4.4c2.61-1.94,4.82-4.33,6.62-7.17c1.8-2.83,3.05-6.07,3.74-9.72l22.72,0.12
		c-0.85,5.91-2.68,11.46-5.5,16.64c-2.82,5.18-6.49,9.75-11.03,13.7c-4.54,3.95-9.84,7.03-15.92,9.23
		c-6.07,2.21-12.82,3.31-20.23,3.31c-10.93,0-20.7-2.53-29.28-7.59c-8.59-5.06-15.35-12.37-20.29-21.93
		c-4.94-9.56-7.41-21.02-7.41-34.38c0-13.4,2.49-24.88,7.47-34.41s11.76-16.84,20.35-21.9C235.62,2.53,245.34,0,256.2,0
		c6.93,0,13.36,0.97,19.32,2.92c5.95,1.94,11.26,4.79,15.92,8.54c4.66,3.75,8.49,8.32,11.51,13.73
		C305.96,30.59,307.93,36.75,308.86,43.68z"/>
	<path d="M432.19,63.91c0,13.41-2.5,24.88-7.5,34.41c-5,9.54-11.81,16.84-20.41,21.9c-8.61,5.06-18.36,7.59-29.25,7.59
		c-10.89,0-20.64-2.54-29.25-7.62c-8.61-5.08-15.41-12.39-20.41-21.93c-5-9.54-7.5-20.99-7.5-34.35c0-13.4,2.5-24.88,7.5-34.41
		c5-9.54,11.8-16.84,20.41-21.9C354.39,2.53,364.14,0,375.03,0c10.89,0,20.64,2.53,29.25,7.59c8.61,5.06,15.41,12.36,20.41,21.9
		C429.69,39.03,432.19,50.5,432.19,63.91z M409.54,63.91c0-9.44-1.47-17.4-4.4-23.9c-2.94-6.5-7-11.42-12.18-14.76
		c-5.18-3.34-11.16-5.01-17.92-5.01c-6.76,0-12.74,1.67-17.92,5.01c-5.18,3.34-9.24,8.26-12.18,14.76c-2.94,6.5-4.4,14.47-4.4,23.9
		c0,9.44,1.47,17.4,4.4,23.9c2.94,6.5,7,11.42,12.18,14.76c5.18,3.34,11.16,5.01,17.92,5.01c6.76,0,12.74-1.67,17.92-5.01
		c5.18-3.34,9.24-8.26,12.18-14.76C408.07,81.31,409.54,73.34,409.54,63.91z"/>
	<path d="M547.26,1.7v124.41h-20.05l-58.62-84.74h-1.03v84.74h-22.54V1.7h20.17l58.56,84.8h1.09V1.7H547.26z"/>
	<path d="M605.35,126.11h-42.16V1.7h43.01c12.35,0,22.97,2.48,31.86,7.44c8.89,4.96,15.72,12.08,20.5,21.35
		c4.78,9.27,7.17,20.37,7.17,33.29c0,12.96-2.4,24.1-7.2,33.41c-4.8,9.32-11.7,16.46-20.72,21.44
		C628.81,123.62,617.98,126.11,605.35,126.11z M585.73,106.61h18.53c8.67,0,15.89-1.59,21.69-4.77c5.79-3.18,10.15-7.94,13.06-14.28
		c2.92-6.34,4.37-14.27,4.37-23.78c0-9.52-1.46-17.42-4.37-23.72c-2.92-6.3-7.22-11.02-12.91-14.15
		c-5.69-3.14-12.75-4.71-21.17-4.71h-19.2V106.61z"/>
	<path d="M678.56,126.11V1.7h80.92v18.89H701.1v33.78h54.19v18.89H701.1v33.96h58.86v18.89H678.56z"/>
	<path d="M807.85,1.7h27.58l36.93,90.15h1.46L910.76,1.7h27.58v124.41h-21.63V40.64h-1.15l-34.38,85.11h-16.16l-34.38-85.29h-1.16
		v85.65h-21.63V1.7z"/>
	<path d="M970.3,126.11h-24.06L990.05,1.7h27.82l43.86,124.41h-24.06l-33.23-98.9h-0.97L970.3,126.11z M971.1,77.33h65.61v18.1
		H971.1V77.33z"/>
	<path d="M1092.12,1.7v124.41h-22.54V1.7H1092.12z"/>
	<path d="M1108.04,126.11V1.7h22.54v105.52h54.8v18.89H1108.04z"/>
	<path d="M1196.32,126.11V1.7h22.54v105.52h54.8v18.89H1196.32z"/>
	<path d="M1284.6,126.11V1.7h80.92v18.89h-58.38v33.78h54.19v18.89h-54.19v33.96H1366v18.89H1284.6z"/>
</g>
</svg>
